<svg width="600" height="95" viewBox="0 0 600 95" fill="none" xmlns="http://www.w3.org/2000/svg">
<path d="M17.5861 19.5067L9.5994 57.2864L14.8983 60.062H15.743L13.9767 68.4661H11.2889L0 62.6835L9.13862 19.5067H17.5861Z" fill="#00285E"/>
<path d="M37.9398 14.2858H53.2988L52.7613 17.0615H37.3254L37.9398 14.2858ZM35.8663 19.5287C37.0183 19.2203 38.1702 19.1432 39.2453 19.1432H52.3005L51.6861 21.9188H38.631C37.7862 21.9188 36.8647 22.073 35.9431 22.3044C35.0984 22.5357 34.1768 22.8441 33.3321 23.3067L32.4874 20.8394C33.5625 20.2226 34.7144 19.8371 35.8663 19.5287Z" fill="#1F1F1F"/>
<path d="M45.9835 45.0273C44.9084 43.5623 43.2189 42.6371 41.1454 42.4829L34.7714 45.1044L31.93 58.52C32.3908 58.8284 32.8515 59.1368 33.3891 59.3681C34.3106 59.8307 35.3858 60.062 36.6145 60.062C38.9951 60.062 41.4526 59.0597 43.3725 57.4406C45.2923 55.8986 46.7515 53.6626 47.2122 51.1954C47.7498 48.8052 47.2122 46.5693 45.9835 45.0273ZM17.4157 60.062C19.0284 60.062 20.6411 59.3681 21.8698 58.3658C23.0985 57.3635 24.0201 55.9757 24.4041 54.4336L27.4759 39.7072L41.299 33.9246H42.1437C46.905 33.9246 50.7448 35.8522 53.2022 39.0133C55.6597 42.1745 56.658 46.4922 55.6597 51.1954C54.6614 55.9757 51.8199 60.2933 48.057 63.4545C44.294 66.5386 39.5327 68.4661 34.7714 68.4661C32.5443 68.4661 30.3941 68.0806 28.551 67.1554C27.3991 66.6928 26.3239 65.9988 25.4024 65.2278C22.4842 67.2325 19.1052 68.4661 15.6494 68.4661H13.8831L15.7262 60.062H17.4157Z" fill="#00285E"/>
<path d="M78.8572 19.5067L70.8705 57.2864L76.1694 60.062H77.0141L75.2479 68.4661H72.56L61.2711 62.6835L70.4098 19.5067H78.8572Z" fill="#00285E"/>
<path d="M97.5215 19.5287C98.6734 19.2203 99.8253 19.0661 100.9 19.0661H113.956L113.341 21.9188H100.286C99.4413 21.9188 98.5198 21.9959 97.5983 22.2273C96.7535 22.4586 95.832 22.8441 94.9872 23.2296L94.1425 20.7623C95.2176 20.2226 96.3695 19.8371 97.5215 19.5287Z" fill="#CF3528"/>
<path d="M107.255 45.0273C106.18 43.5623 104.49 42.6371 102.417 42.4829L96.0425 45.1044L93.2011 58.52C93.6619 58.8284 94.1227 59.1368 94.6602 59.3681C95.5818 59.8307 96.6569 60.062 97.8856 60.062C100.266 60.062 102.724 59.0597 104.644 57.4406C106.563 55.8986 108.023 53.6626 108.483 51.1954C109.021 48.8052 108.483 46.5693 107.255 45.0273ZM78.6868 60.062C80.2995 60.062 81.9122 59.3681 83.141 58.3658C84.3697 57.3635 85.2912 55.9757 85.6752 54.4336L88.747 39.7072L102.57 33.9246H103.415C108.176 33.9246 112.016 35.8522 114.473 39.0133C116.931 42.1745 117.929 46.4922 116.931 51.1954C115.933 55.9757 113.091 60.2933 109.328 63.4545C105.565 66.5386 100.804 68.4661 96.0425 68.4661C93.8155 68.4661 91.6652 68.0806 89.8221 67.1554C88.6702 66.6928 87.5951 65.9988 86.6735 65.2278C83.7553 67.2325 80.3763 68.4661 76.9206 68.4661H75.1543L76.9974 60.062H78.6868Z" fill="#00285E"/>
<path d="M130.655 91.2991C131.73 90.9907 132.882 90.8365 134.034 90.8365H147.089L146.475 93.6893H133.42C132.575 93.6893 131.653 93.7664 130.732 93.9977C129.887 94.229 128.965 94.6145 128.121 95L127.276 92.5328C128.351 91.993 129.503 91.6075 130.655 91.2991Z" fill="#CF3528"/>
<path d="M129.607 78.4893L126.382 81.1878L125.46 79.9542C125.307 79.8 125.153 79.6458 124.923 79.5687C124.693 79.4916 124.462 79.4145 124.232 79.4145C123.617 79.4145 123.08 79.6458 122.696 79.9542C122.235 80.3397 121.928 80.8023 121.774 81.4191C121.698 81.9588 121.774 82.4215 122.082 82.807C122.312 83.1154 122.773 83.3467 123.31 83.3467H128.609L127.764 87.1246H115.554L116.322 83.3467H118.011C117.935 82.7299 117.935 82.1131 118.088 81.4191C118.395 79.8 119.317 78.4122 120.622 77.3328C121.851 76.2533 123.464 75.6365 125 75.6365C125.768 75.6365 126.459 75.7907 127.073 76.0991C127.688 76.4075 128.302 76.7931 128.686 77.3328L129.607 78.4893ZM131.758 59.291C131.451 60.6788 131.374 62.0667 131.451 63.3003C131.527 64.611 131.758 65.9217 132.142 67.0783L124.001 71.3188C123.31 69.4684 122.926 67.5409 122.849 65.5362C122.696 63.4545 122.926 61.3728 123.31 59.291L131.758 19.5067H140.205L131.758 59.291Z" fill="#00285E"/>
<path d="M163.367 16.7751C164.519 16.4667 165.671 16.3125 166.746 16.3125H179.801L179.187 19.1652H166.132C165.287 19.1652 164.366 19.2423 163.444 19.4736C162.599 19.7049 161.678 20.0904 160.833 20.4759L159.988 18.0087C161.063 17.469 162.215 17.0835 163.367 16.7751Z" fill="#CF3528"/>
<path d="M203.516 84.8116C201.289 84.8116 199.829 82.8841 200.29 80.6481C200.828 78.4122 203.055 76.5617 205.282 76.5617C207.586 76.5617 208.968 78.4122 208.507 80.6481C208.046 82.8841 205.819 84.8116 203.516 84.8116ZM194.607 84.8116C192.303 84.8116 190.844 82.8841 191.382 80.6481C191.843 78.4122 194.07 76.5617 196.374 76.5617C198.601 76.5617 200.06 78.4122 199.599 80.6481C199.061 82.8841 196.834 84.8116 194.607 84.8116ZM177.866 33.1536C175.639 33.1536 174.18 31.3032 174.641 29.0672C175.178 26.7542 177.405 24.9038 179.632 24.9038C181.936 24.9038 183.318 26.7542 182.858 29.0672C182.397 31.3032 180.17 33.1536 177.866 33.1536ZM193.916 48.1884L188.08 75.4823L186.621 76.7931C184.163 78.8748 181.399 80.4168 178.557 81.5733C175.639 82.6528 172.721 83.1925 169.879 83.1925C163.889 83.1925 158.974 80.7252 155.826 76.7931C152.754 72.8609 151.448 67.3867 152.754 61.3728L155.826 46.8006H164.273L161.201 61.3728C160.357 65.0736 161.201 68.389 163.045 70.8562C164.964 73.2464 167.959 74.7113 171.646 74.7113C173.489 74.7113 175.255 74.4029 177.021 73.709C178.173 73.2464 179.325 72.7067 180.477 71.9357L185.469 48.1884C186.313 44.2562 188.617 40.7096 191.766 38.1652C194.838 35.5438 198.754 33.9246 202.671 33.9246C204.898 33.9246 207.048 34.3872 208.968 35.3125C210.888 36.1606 212.501 37.3942 213.806 39.0133L214.728 40.247L211.809 54.2794C211.425 55.8215 211.809 57.2864 212.577 58.3658C213.422 59.3681 214.728 60.062 216.34 60.062L214.497 68.4661C210.581 68.4661 207.432 66.9241 205.359 64.3026C203.362 61.7583 202.517 58.2116 203.362 54.2794L205.512 43.9478C205.128 43.6394 204.591 43.331 204.13 43.0997C203.208 42.6371 202.056 42.4058 200.905 42.4058C199.292 42.4058 197.679 43.0997 196.45 44.102C195.222 45.1815 194.223 46.5693 193.916 48.1884Z" fill="#00285E"/>
<path d="M240.223 73.4006C241.298 73.0922 242.45 72.938 243.602 72.938H256.657L256.043 75.7907H242.988C242.143 75.7907 241.221 75.8678 240.3 76.0991C239.455 76.3304 238.534 76.716 237.689 77.1015L236.844 74.6342C237.919 74.0945 239.071 73.709 240.223 73.4006Z" fill="#FFE550"/>
<path d="M252.355 27.6023C250.128 27.6023 248.669 25.6748 249.13 23.4388C249.591 21.2029 251.895 19.3525 254.122 19.3525C256.349 19.3525 257.808 21.2029 257.347 23.4388C256.886 25.6748 254.659 27.6023 252.355 27.6023ZM243.447 27.6023C241.143 27.6023 239.684 25.6748 240.145 23.4388C240.683 21.2029 242.91 19.3525 245.137 19.3525C247.441 19.3525 248.9 21.2029 248.362 23.4388C247.901 25.6748 245.674 27.6023 243.447 27.6023ZM235.384 57.4406C236.459 58.9055 238.148 59.8307 240.222 59.9849L246.596 57.2864L249.36 43.9478C248.977 43.6394 248.516 43.331 247.978 43.0997C247.057 42.6371 245.905 42.4058 244.753 42.4058C242.295 42.4058 239.915 43.4081 237.995 45.0273C236.075 46.5693 234.616 48.8052 234.078 51.1954C233.617 53.6626 234.078 55.8986 235.384 57.4406ZM214.495 68.4661L216.339 60.062H226.245C225.247 57.4406 225.016 54.4336 225.708 51.1954C226.706 46.4922 229.547 42.1745 233.31 39.0133C237.073 35.8522 241.758 33.9246 246.519 33.9246C248.823 33.9246 250.896 34.3872 252.816 35.3125C254.736 36.1606 256.349 37.3942 257.654 39.0133L258.576 40.247L255.581 54.4336C255.351 55.9757 255.658 57.3635 256.426 58.3658C257.27 59.3681 258.576 60.062 260.189 60.062L258.346 68.4661C254.583 68.4661 251.434 67.0012 249.437 64.611L240.145 68.4661H214.495Z" fill="#00285E"/>
<path d="M281.736 13.8783C280.738 14.7264 279.432 15.2661 278.127 15.2661C276.821 15.2661 275.746 14.7264 275.055 13.8783C274.441 13.0301 274.134 11.7965 274.441 10.4858L275.209 6.86203H277.973L277.205 10.5629C277.129 11.0255 277.205 11.5652 277.513 11.8736C277.743 12.2591 278.204 12.4133 278.741 12.4133C279.279 12.4133 279.816 12.2591 280.2 11.8736C280.584 11.5652 280.892 11.0255 281.045 10.5629L282.274 4.70319H285.192L283.887 10.8713C283.81 11.2568 283.963 11.6423 284.194 11.8736C284.424 12.2591 284.885 12.4904 285.422 12.4904C285.96 12.4904 286.421 12.2591 286.882 11.8736C287.266 11.5652 287.573 11.1026 287.726 10.5629C287.726 10.3316 287.726 10.1774 287.726 10.0232L287.649 9.56058L286.421 6.24522L289.185 4.85739L290.337 8.17275L290.568 9.32928C290.644 9.71479 290.568 10.1003 290.491 10.5629C290.26 11.8736 289.416 13.0301 288.417 13.8783C287.419 14.7264 286.114 15.2661 284.808 15.2661C283.503 15.2661 282.427 14.7264 281.736 13.8783ZM276.668 0.385511C277.82 0.154206 278.972 0 280.124 0H293.179L292.564 2.85276H279.509C278.588 2.85276 277.743 2.92986 276.821 3.16116C275.9 3.39247 275.055 3.70087 274.21 4.16348L273.289 1.69623C274.441 1.15653 275.516 0.693913 276.668 0.385511Z" fill="#CF3528"/>
<path d="M281.483 33.2307C279.179 33.2307 277.72 31.3032 278.258 29.0672C278.718 26.8313 280.945 24.9809 283.173 24.9809C285.476 24.9809 286.936 26.8313 286.398 29.0672C285.937 31.3032 283.71 33.2307 281.483 33.2307ZM272.498 33.2307C270.271 33.2307 268.812 31.3032 269.273 29.0672C269.733 26.8313 271.96 24.9809 274.264 24.9809C276.491 24.9809 277.951 26.8313 277.49 29.0672C277.029 31.3032 274.725 33.2307 272.498 33.2307ZM271.73 65.3049C270.501 66.076 269.196 66.6928 267.814 67.2325C265.586 68.0806 263.359 68.5432 261.132 68.5432H258.368L260.134 60.062H262.899C264.051 60.062 265.202 59.8307 266.278 59.4452C266.892 59.2139 267.43 58.9055 267.967 58.5971L271.884 40.247H280.254L277.336 54.2794C276.952 55.8215 277.336 57.2864 278.104 58.3658C278.949 59.3681 280.254 60.062 281.867 60.062L280.024 68.4661C276.645 68.4661 273.804 67.3096 271.73 65.3049Z" fill="#00285E"/>
<path d="M318.474 20.3658C319.012 20.3658 319.473 20.1345 319.933 19.8261C320.317 19.4406 320.625 18.978 320.778 18.4383C320.855 17.8986 320.778 17.4359 320.471 17.1275C320.241 16.742 319.78 16.5107 319.242 16.5107C318.705 16.5107 318.244 16.742 317.783 17.1275C317.399 17.4359 317.092 17.8986 316.938 18.4383C316.862 18.978 316.938 19.4406 317.246 19.8261C317.476 20.1345 317.937 20.3658 318.474 20.3658ZM317.86 23.2186H310.641C309.72 23.2186 308.875 23.2957 307.953 23.527C307.032 23.7583 306.187 24.1438 305.342 24.5293L304.421 22.062C305.573 21.5223 306.648 21.1368 307.8 20.8284C308.952 20.52 310.104 20.3658 311.256 20.3658H314.174C314.02 19.749 314.02 19.1322 314.174 18.4383C314.404 17.1275 315.249 15.971 316.247 15.1229C317.246 14.2748 318.551 13.7351 319.857 13.7351C321.162 13.7351 322.237 14.2748 322.928 15.1229C323.62 15.971 323.85 17.1275 323.62 18.4383C323.312 19.749 322.544 20.9055 321.546 21.8307H321.469C320.471 22.6788 319.165 23.1415 317.86 23.1415V23.2186Z" fill="#1F1F1F"/>
<path d="M312.142 45.0273C311.067 43.5623 309.377 42.6371 307.304 42.4829L300.93 45.1044L298.088 58.52C298.549 58.8284 299.01 59.1368 299.547 59.3681C300.469 59.8307 301.544 60.062 302.773 60.062C305.153 60.062 307.611 59.0597 309.531 57.4406C311.451 55.8986 312.91 53.6626 313.37 51.1954C313.908 48.8052 313.37 46.5693 312.142 45.0273ZM283.574 60.062C285.187 60.062 286.799 59.3681 288.028 58.3658C289.257 57.3635 290.178 55.9757 290.562 54.4336L293.634 39.7072L307.457 33.9246H308.302C313.063 33.9246 316.903 35.8522 319.36 39.0133C321.818 42.1745 322.816 46.4922 321.818 51.1954L321.204 54.2794C320.82 55.8215 321.204 57.2864 322.048 58.3658C322.816 59.3681 324.122 60.062 325.734 60.062L323.968 68.4661C320.052 68.4661 316.826 66.9241 314.753 64.3026C314.599 64.0713 314.369 63.7629 314.215 63.4545C310.375 66.6157 305.691 68.4661 300.93 68.4661C298.703 68.4661 296.552 68.0806 294.709 67.1554C293.557 66.6928 292.482 65.9988 291.561 65.2278C288.642 67.2325 285.263 68.4661 281.808 68.4661H280.041L281.884 60.062H283.574Z" fill="#00285E"/>
<path d="M346.091 9.42841C346.629 9.42841 347.09 9.2742 347.55 8.8887C347.934 8.58029 348.241 8.04058 348.395 7.57798C348.472 7.03826 348.395 6.49856 348.088 6.19015C347.857 5.80464 347.397 5.65044 346.859 5.65044C346.322 5.65044 345.861 5.80464 345.4 6.19015C345.016 6.49856 344.709 7.03826 344.555 7.57798C344.478 8.04058 344.555 8.58029 344.862 8.8887C345.093 9.2742 345.554 9.42841 346.091 9.42841ZM349.086 10.8933C348.088 11.7415 346.782 12.2812 345.477 12.2812C344.171 12.2812 343.096 11.7415 342.405 10.8933C341.791 10.0452 341.483 8.8116 341.791 7.50087C342.021 6.19015 342.789 5.03362 343.864 4.18551C344.862 3.3374 346.168 2.79768 347.474 2.79768C348.779 2.79768 349.854 3.3374 350.545 4.18551C351.16 5.03362 351.467 6.26725 351.16 7.50087C350.929 8.8116 350.161 10.0452 349.086 10.8933Z" fill="#CF3528"/>
<path d="M359.541 73.4006C360.616 73.0922 361.768 72.938 362.92 72.938H375.975L375.36 75.7907H362.305C361.46 75.7907 360.539 75.8678 359.617 76.0991C358.773 76.3304 357.851 76.716 357.006 77.1015L356.162 74.6342C357.237 74.0945 358.389 73.709 359.541 73.4006Z" fill="#4888FF"/>
<path d="M348.49 68.4661H348.413C343.729 68.4661 339.889 66.5386 337.431 63.4545C337.124 63.7629 336.817 64.0713 336.433 64.3026C333.361 66.9241 329.445 68.4661 325.528 68.4661H323.839L325.605 60.062H327.294C328.907 60.062 330.52 59.3681 331.749 58.3658C333.054 57.2864 333.976 55.8215 334.36 54.2794L341.655 19.4296H350.103L343.421 51.1954C342.884 53.6626 343.421 55.8986 344.65 57.4406C345.879 59.0597 347.875 60.062 350.256 60.062C351.408 60.062 352.714 59.8307 353.789 59.3681C354.403 59.1368 355.017 58.8284 355.632 58.52L363.849 19.4296H372.296L363.234 62.2209L361.775 63.4545C359.779 65.0736 357.628 66.3073 355.325 67.1554C353.098 68.0035 350.717 68.4661 348.49 68.4661Z" fill="#00285E"/>
<path d="M404.112 19.5067L396.125 57.2864L401.424 60.062H402.269L400.502 68.4661H397.815L386.526 62.6835L395.664 19.5067H404.112Z" fill="#00285E"/>
<path d="M416.476 14.0215C417.628 13.713 418.78 13.5588 419.855 13.5588H432.911L432.296 16.4116H419.241C418.396 16.4116 417.475 16.4887 416.553 16.72C415.708 16.9513 414.787 17.3368 413.942 17.7223L413.097 15.2551C414.173 14.7154 415.324 14.3299 416.476 14.0215Z" fill="#4888FF"/>
<path d="M419.608 33.1536C417.38 33.1536 415.921 31.3032 416.382 29.0672C416.843 26.7542 419.07 24.9038 421.374 24.9038C423.601 24.9038 425.06 26.7542 424.599 29.0672C424.062 31.3032 421.835 33.1536 419.608 33.1536ZM413.771 65.3049C412.542 66.076 411.237 66.6928 409.855 67.2325C407.628 68.0806 405.4 68.5432 403.173 68.5432H400.409L402.175 60.062H404.94C406.092 60.062 407.244 59.8307 408.319 59.4452C408.933 59.2139 409.471 58.9055 410.008 58.5971L413.925 40.247H422.295L419.377 54.2794C418.993 55.8215 419.377 57.2864 420.145 58.3658C420.99 59.3681 422.295 60.062 423.908 60.062L422.065 68.4661C418.686 68.4661 415.845 67.3096 413.771 65.3049Z" fill="#00285E"/>
<path d="M444.485 10.8052C445.023 10.8052 445.483 10.651 445.944 10.2655C446.328 9.9571 446.635 9.41739 446.789 8.95479C446.866 8.41508 446.789 7.87537 446.482 7.56696C446.251 7.18145 445.79 7.02725 445.253 7.02725C444.715 7.02725 444.255 7.18145 443.794 7.56696C443.41 7.87537 443.103 8.41508 442.949 8.95479C442.872 9.41739 442.949 9.9571 443.256 10.2655C443.487 10.651 443.947 10.8052 444.485 10.8052ZM447.48 12.2701C446.482 13.1183 445.176 13.658 443.871 13.658C442.565 13.658 441.49 13.1183 440.799 12.2701C440.184 11.422 439.877 10.1884 440.184 8.87768C440.415 7.56696 441.183 6.41044 442.258 5.56232C443.256 4.71421 444.562 4.17449 445.867 4.17449C447.173 4.17449 448.248 4.71421 448.939 5.56232C449.553 6.41044 449.861 7.64406 449.553 8.87768C449.323 10.1884 448.555 11.422 447.48 12.2701Z" fill="#CF3528"/>
<path d="M434.677 64.3797C431.528 66.9241 427.688 68.4661 423.772 68.4661H422.082L423.849 60.062H425.615C427.228 60.062 428.764 59.3681 430.069 58.3658C431.298 57.3635 432.219 55.8986 432.527 54.3565L439.976 19.5067H448.346L441.051 54.2794C440.667 55.8215 441.051 57.2864 441.819 58.3658C442.664 59.3681 443.969 60.062 445.582 60.062L443.739 68.4661C439.899 68.4661 436.673 66.9241 434.677 64.3797Z" fill="#00285E"/>
<path d="M460.874 20.9055C462.025 20.5971 463.177 20.4429 464.253 20.4429H477.308L476.693 23.2957H463.638C462.793 23.2957 461.872 23.3728 460.95 23.6041C460.106 23.8354 459.184 24.2209 458.339 24.6064L457.495 22.1391C458.57 21.5994 459.722 21.2139 460.874 20.9055Z" fill="#00285E"/>
<path d="M470.711 59.8307C473.476 59.3681 476.087 58.0574 478.314 56.207C481.079 53.8939 483.229 50.6557 483.997 47.109C484.15 46.4151 484.227 45.8754 484.227 45.4128C484.304 45.2586 484.304 45.1044 484.304 44.9501L482.384 42.8684L466.103 47.0319L470.711 59.8307ZM443.756 68.4661L445.599 60.062H461.112L455.736 45.3357L458.808 40.6325L486.454 33.5391L492.751 40.247L492.905 41.5577C492.905 42.4058 492.905 43.331 492.828 44.2562C492.751 45.2586 492.598 46.1838 492.444 47.109C491.369 51.9664 488.835 56.4383 485.302 60.062H496.13L494.364 68.4661H443.756Z" fill="#00285E"/>
<path d="M521.28 20.4429C521.818 20.4429 522.279 20.2887 522.739 19.9032C523.123 19.5948 523.43 19.0551 523.584 18.5925C523.661 18.0528 523.584 17.513 523.277 17.2046C523.046 16.8191 522.586 16.6649 522.048 16.6649C521.511 16.6649 521.05 16.8191 520.589 17.2046C520.205 17.513 519.898 18.0528 519.744 18.5925C519.667 19.0551 519.744 19.5948 520.051 19.9032C520.282 20.2887 520.743 20.4429 521.28 20.4429ZM524.275 21.9078C523.277 22.7559 521.971 23.2957 520.666 23.2957C519.36 23.2957 518.285 22.7559 517.594 21.9078C516.98 21.0597 516.672 19.8261 516.98 18.5154C517.21 17.2046 517.978 16.0481 519.053 15.2C520.051 14.3519 521.357 13.8122 522.662 13.8122C523.968 13.8122 525.043 14.3519 525.734 15.2C526.349 16.0481 526.656 17.2817 526.349 18.5154C526.118 19.8261 525.35 21.0597 524.275 21.9078Z" fill="#CF3528"/>
<path d="M496.069 60.062H521.719C520.72 58.6742 519.722 57.2864 518.954 55.7444C516.727 51.7351 515.268 47.2632 514.577 42.4058H506.897L508.664 33.9246H522.717L522.947 37.0858C523.178 42.0974 524.483 46.6464 526.71 50.6557C528.937 54.6649 532.009 58.0574 535.926 60.6017L532.163 68.4661H494.303L496.069 60.062ZM510.507 84.8116C508.28 84.8116 506.82 82.8841 507.281 80.6481C507.819 78.4122 510.046 76.5617 512.273 76.5617C514.577 76.5617 515.959 78.4122 515.498 80.6481C515.038 82.8841 512.81 84.8116 510.507 84.8116Z" fill="#00285E"/>
<path d="M552.631 19.5067H561.079L552.631 59.291C552.324 60.6788 552.247 62.0667 552.324 63.3003C552.401 64.611 552.631 65.9217 553.092 67.0783L544.875 71.3188C544.26 69.4684 543.8 67.5409 543.723 65.5362C543.646 63.4545 543.8 61.3728 544.184 59.291L552.631 19.5067Z" fill="#00285E"/>
<path d="M583.566 20.9055C584.718 20.5971 585.87 20.4429 586.945 20.4429H600L599.386 23.2957H586.33C585.486 23.2957 584.564 23.3728 583.643 23.6041C582.798 23.8354 581.876 24.2209 581.032 24.6064L580.187 22.1391C581.262 21.5994 582.414 21.2139 583.566 20.9055Z" fill="#FFAA48"/>
<path d="M597.342 40.247L593.118 60.2933C592.197 64.7652 590.354 69.16 587.82 73.2464C585.209 77.3328 581.983 81.1107 578.143 84.2719L573.459 78.258C576.377 75.8678 578.835 73.0922 580.678 70.0081C581.062 69.5455 581.292 69.0058 581.599 68.4661H577.99C573.229 68.4661 569.312 66.5386 566.854 63.4545C564.397 60.2933 563.399 55.9757 564.397 51.1954C565.472 46.4922 568.314 42.1745 572.077 39.0133C575.84 35.8522 580.524 33.9246 585.285 33.9246C587.589 33.9246 589.663 34.3872 591.583 35.3125C593.502 36.1606 595.115 37.3942 596.421 39.0133L597.342 40.247ZM579.756 60.062H584.748L588.127 43.9478C587.743 43.6394 587.282 43.331 586.744 43.0997C585.823 42.6371 584.671 42.4058 583.519 42.4058C581.062 42.4058 578.681 43.4081 576.761 45.0273C574.841 46.5693 573.382 48.8052 572.844 51.1954C572.384 53.6626 572.844 55.8986 574.15 57.4406C575.379 59.0597 577.375 60.062 579.756 60.062Z" fill="#00285E"/>
</svg>
